<?xml version="1.0" encoding="UTF-8" standalone="no"?>
<svg
   xmlns:dc="http://purl.org/dc/elements/1.1/"
   xmlns:cc="http://creativecommons.org/ns#"
   xmlns:rdf="http://www.w3.org/1999/02/22-rdf-syntax-ns#"
   xmlns:svg="http://www.w3.org/2000/svg"
   xmlns="http://www.w3.org/2000/svg"
   xmlns:sodipodi="http://sodipodi.sourceforge.net/DTD/sodipodi-0.dtd"
   xmlns:inkscape="http://www.inkscape.org/namespaces/inkscape"
   version="1.1"
   id="Layer_1"
   x="0px"
   y="0px"
   viewBox="0 0 1000 288.64599"
   xml:space="preserve"
   inkscape:version="1.0.2 (e86c870879, 2021-01-15)"
   sodipodi:docname="Indosat_2005.svg"
   width="1000"
   height="288.646"><metadata
     id="metadata81"><rdf:RDF><cc:Work
         rdf:about=""><dc:format>image/svg+xml</dc:format><dc:type
           rdf:resource="http://purl.org/dc/dcmitype/StillImage" /><dc:title /></cc:Work></rdf:RDF></metadata><defs
     id="defs79" /><sodipodi:namedview
     pagecolor="#ffffff"
     bordercolor="#666666"
     borderopacity="1"
     objecttolerance="10"
     gridtolerance="10"
     guidetolerance="10"
     inkscape:pageopacity="0"
     inkscape:pageshadow="2"
     inkscape:window-width="1366"
     inkscape:window-height="705"
     id="namedview77"
     showgrid="false"
     fit-margin-top="0"
     fit-margin-left="0"
     fit-margin-right="0"
     fit-margin-bottom="0"
     inkscape:zoom="0.5"
     inkscape:cx="450.47901"
     inkscape:cy="131.59828"
     inkscape:window-x="-8"
     inkscape:window-y="-8"
     inkscape:window-maximized="1"
     inkscape:current-layer="Layer_1"
     inkscape:document-rotation="0" /><style
     type="text/css"
     id="style3">
	.st0{fill:#013B82;}
	.st1{fill:#F47920;}
	.st2{fill:#8B6520;}
	.st3{fill:#853039;}
	.st4{fill:#ED1B2F;}
	.st5{fill:#FDB913;}
	.st6{fill:#00C0F3;}
</style><g
     id="g1193"><path
       id="path21"
       style="fill:#013b82;stroke-width:4.15318"
       d="m 553.94811,63.128146 c -7.06041,0 -12.45955,5.81445 -12.45955,12.45955 v 38.209294 h -41.53184 c -14.95146,0 -27.41101,12.04423 -27.41101,27.41101 v 53.99139 c 0,14.95146 12.04424,27.41101 27.41101,27.41101 h 39.45525 c 14.95146,0 27.41101,-12.04424 27.41101,-27.41101 V 76.003006 c 0,-7.47573 -5.81446,-12.87486 -12.87487,-12.87486 z M 541.48856,188.13897 c 0,4.98382 -4.15319,9.13701 -9.13701,9.13701 h -25.74973 c -4.98382,0 -9.13701,-4.15319 -9.13701,-9.13701 V 147.8531 c 0,-4.98382 4.15319,-9.13701 9.13701,-9.13701 h 25.74973 c 4.98382,0 9.13701,4.15319 9.13701,9.13701 z m 111.30531,-74.34199 h -38.20929 c -14.95146,0 -27.41101,12.04423 -27.41101,27.41101 v 53.99139 c 0,14.95146 12.04424,27.41101 27.41101,27.41101 h 38.20929 c 14.95146,0 27.41101,-12.04424 27.41101,-27.41101 v -53.99139 c 0,-15.36678 -12.04423,-27.41101 -27.41101,-27.41101 z m 2.49191,74.34198 c 0,4.98382 -4.15318,9.13701 -9.137,9.13701 H 621.645 c -4.98382,0 -9.13701,-4.15319 -9.13701,-9.13701 v -40.28587 c 0,-4.98382 4.15319,-9.13701 9.13701,-9.13701 h 24.50378 c 4.98382,0 9.137,4.15319 9.137,9.13701 z m 218.87276,-74.34198 h -42.36247 c -7.06041,0 -12.45955,5.81446 -12.45955,12.45955 0,7.06041 5.81446,12.45955 12.45955,12.45955 h 40.28588 c 2.49191,0 4.5685,2.07659 4.5685,4.5685 v 10.38296 h -40.70119 c -14.95146,0 -27.41101,12.04423 -27.41101,27.41101 v 13.70551 c 0,14.95146 12.04423,27.41101 27.41101,27.41101 h 38.20928 c 14.95146,0 27.41101,-12.04423 27.41101,-26.99569 v -53.99139 c 0,-15.36678 -12.45955,-27.41101 -27.41101,-27.41101 z m 2.49191,78.91049 c 0,2.49191 -2.07659,4.5685 -4.5685,4.5685 h -33.64078 c -2.49191,0 -4.5685,-2.07659 -4.5685,-4.5685 v -9.55233 c 0,-2.49191 2.07659,-4.5685 4.5685,-4.5685 h 33.64078 c 2.49191,0 4.5685,2.07659 4.5685,4.5685 z M 762.85323,153.66754 h -34.0561 c -2.49191,0 -4.5685,-2.07659 -4.5685,-4.5685 v -5.81446 c 0,-2.49191 2.07659,-4.5685 4.5685,-4.5685 h 47.76161 c 7.06041,0 12.45955,-5.81445 12.45955,-12.45955 0,-7.06041 -5.81446,-12.45955 -12.45955,-12.45955 h -50.25352 c -14.95146,0 -27.41101,12.04423 -27.41101,27.41101 v 9.96764 c 0,14.95146 12.04423,27.41101 27.41101,27.41101 h 34.0561 c 2.49191,0 4.5685,2.07659 4.5685,4.5685 v 9.55233 c 0,2.49191 -2.07659,4.5685 -4.5685,4.5685 h -48.17693 c -7.06041,0 -12.45955,5.81445 -12.45955,12.45955 0,7.06041 5.81446,12.45955 12.45955,12.45955 h 50.66884 c 14.95146,0 27.41101,-12.04423 27.41101,-27.41101 v -14.12083 c 0,-14.95146 -12.04423,-26.99569 -27.41101,-26.99569 z m 224.68722,43.60844 h -24.08846 c -2.49191,0 -4.56851,-2.07659 -4.56851,-4.5685 v -53.99139 h 24.50379 c 7.06041,0 12.45955,-5.81445 12.45955,-12.45955 0,-6.64509 -5.81446,-12.45955 -12.45955,-12.45955 H 958.88348 V 79.325556 c 0,-7.06041 -5.81445,-12.45955 -12.45955,-12.45955 -7.06041,0 -12.45955,5.81446 -12.45955,12.45955 v 34.471434 h -7.89104 c -7.06042,0 -12.45955,5.81446 -12.45955,12.45955 0,6.6451 5.81445,12.45955 12.45955,12.45955 h 7.89104 v 65.6203 c 0,9.96764 8.30637,18.27401 18.27401,18.27401 h 35.30206 c 7.06041,0 12.45955,-5.81446 12.45955,-12.45955 0,-7.47573 -5.39914,-12.87487 -12.45955,-12.87487 z M 328.43025,66.450686 c -7.89105,0 -14.53614,6.6451 -14.53614,14.53614 0,7.89105 6.64509,14.53615 14.53614,14.53615 7.89105,0 14.53614,-6.6451 14.53614,-14.53615 0,-8.30636 -6.64509,-14.53614 -14.53614,-14.53614 z m 0,46.515664 c -7.47573,0 -13.70551,6.22977 -13.70551,13.7055 v 82.23303 c 0,7.47573 6.22978,13.70551 13.70551,13.70551 7.47573,0 13.7055,-6.22978 13.7055,-13.70551 v -82.23303 c 0,-7.47573 -6.22977,-13.7055 -13.7055,-13.7055 z m 96.76917,0.83063 h -35.30206 c -14.95146,0 -27.41101,12.04423 -27.41101,27.41101 v 68.52753 c 0,7.06041 5.81446,12.45955 12.45955,12.45955 7.06041,0 12.45955,-5.81446 12.45955,-12.45955 v -61.88243 c 0,-4.98382 4.15318,-9.13701 9.137,-9.13701 h 21.59656 c 4.98382,0 9.13701,4.15319 9.13701,9.13701 v 61.88243 c 0,7.06041 5.81445,12.45955 12.45955,12.45955 7.06041,0 12.45955,-5.81446 12.45955,-12.45955 v -68.52753 c 0.41531,-15.36678 -12.04424,-27.41101 -26.9957,-27.41101 z" /><g
       id="g1134"
       transform="matrix(0.99999801,0,0,0.99999801,567.91206,9.482583e-5)"
       style="display:inline"><path
         style="fill:#00c0f3;fill-opacity:1;fill-rule:evenodd;stroke-width:188.976;paint-order:stroke fill markers"
         d="m -504.84288,144.32422 a 34.065136,144.323 60.023841 0 1 29.34766,-19.49805 34.065136,144.323 0 0 1 2.21875,-35.095704 144.323,34.065136 29.976159 0 0 -93.48242,-17.517578 144.323,34.065136 29.976159 0 0 61.91601,72.111332 z"
         id="path1042" /><path
         style="fill:#fdb913;fill-opacity:1;fill-rule:evenodd;stroke-width:188.976;paint-order:stroke fill markers"
         d="m -473.27647,198.91602 a 34.065136,144.323 0 0 1 -2.21875,-35.09766 144.323,34.065136 29.976159 0 1 -29.34766,-19.49414 34.065136,144.323 60.023841 0 0 -61.91601,72.10742 34.065136,144.323 60.023841 0 0 93.48242,-17.51562 z"
         id="path1040" /><path
         style="fill:#ed1b2f;fill-opacity:1;fill-rule:evenodd;stroke-width:188.976;paint-order:stroke fill markers"
         d="m -410.20811,198.91602 a 144.323,34.065136 29.976159 0 1 -31.5332,-15.62696 34.065136,144.323 60.023841 0 1 -31.53516,15.62696 34.065136,144.323 0 0 0 31.5332,89.73046 34.065136,144.323 0 0 0 31.53516,-89.73046 z"
         id="path1038" /><path
         style="fill:#00c0f3;fill-opacity:1;fill-rule:evenodd;stroke-width:188.976;paint-order:stroke fill markers"
         d="m -378.6417,144.32422 a 34.065136,144.323 60.023841 0 1 -29.34961,19.49609 34.065136,144.323 0 0 1 -2.2168,35.09571 144.323,34.065136 29.976159 0 0 93.48242,17.51562 144.323,34.065136 29.976159 0 0 -61.91601,-72.10742 z"
         id="path1036" /><path
         style="fill:#fdb913;fill-opacity:1;fill-rule:evenodd;stroke-width:188.976;paint-order:stroke fill markers"
         d="m -410.20811,89.730466 a 34.065136,144.323 0 0 1 2.21875,35.095704 144.323,34.065136 29.976159 0 1 29.34766,19.49805 34.065136,144.323 60.023841 0 0 61.91601,-72.111332 34.065136,144.323 60.023841 0 0 -93.48242,17.517578 z"
         id="path1034" /><path
         style="fill:#ed1b2f;fill-opacity:1;fill-rule:evenodd;stroke-width:188.976;paint-order:stroke fill markers"
         d="m -441.82139,0 a 34.065136,144.323 0 0 0 -31.45508,89.730466 144.323,34.065136 29.976159 0 1 31.53516,15.626954 34.065136,144.323 60.023841 0 1 31.5332,-15.626954 A 34.065136,144.323 0 0 0 -441.74327,0 a 34.065136,144.323 0 0 0 -0.0781,0 z"
         id="path868-4-1" /><path
         style="display:inline;fill:#8b6520;fill-opacity:1;fill-rule:evenodd;stroke-width:188.976;paint-order:stroke fill markers"
         d="m -475.49521,163.81836 c 33.75283,-19.49414 33.75302,-19.49414 33.75302,-19.49414 0,0 -1.9e-4,0 -33.75302,-19.49805 -10.26333,6.36876 -20.12432,12.92023 -29.34766,19.49805 9.22397,6.5768 19.08494,13.12694 29.34766,19.49414 z"
         id="path1020"
         sodipodi:nodetypes="ccccc" /><path
         style="fill:#f47920;fill-opacity:1;fill-rule:evenodd;stroke-width:188.976;paint-order:stroke fill markers"
         d="m -441.74131,105.35742 c -8.8e-4,38.9668 -8.8e-4,38.9668 -8.8e-4,38.9668 l 33.75284,-19.49805 c -0.38767,-12.04784 -1.13316,-23.83983 -2.21875,-35.095701 -10.30041,4.687439 -20.89554,9.938079 -31.53321,15.626951 z"
         id="path1004"
         sodipodi:nodetypes="ccccc" /><path
         style="fill:#853039;fill-opacity:1;fill-rule:evenodd;stroke-width:188.976;paint-order:stroke fill markers"
         d="m -473.27646,89.730469 c -1.08559,11.255871 -1.83108,23.047861 -2.21875,35.095701 33.75302,19.49805 33.75283,19.49805 33.75283,19.49805 0,0 0,0 0.001,-38.9668 -10.63847,-5.689007 -21.23426,-10.939653 -31.53515,-15.626951 z"
         id="path1002"
         sodipodi:nodetypes="ccccc" /><path
         style="display:inline;fill:#8b6520;fill-opacity:1;fill-rule:evenodd;stroke-width:188.976;paint-order:stroke fill markers"
         d="m -407.98936,163.81836 c -33.75283,-19.49414 -33.75302,-19.49414 -33.75302,-19.49414 0,0 1.9e-4,0 33.75302,-19.49805 10.26333,6.36876 20.12432,12.92023 29.34766,19.49805 -9.22397,6.5768 -19.08494,13.12694 -29.34766,19.49414 z"
         id="path1020-6"
         sodipodi:nodetypes="ccccc" /><path
         style="display:inline;fill:#f47920;fill-opacity:1;fill-rule:evenodd;stroke-width:188.976;paint-order:stroke fill markers"
         d="m -441.74325,183.28907 c 8.8e-4,-38.9668 8.8e-4,-38.9668 8.8e-4,-38.9668 l -33.75284,19.49805 c 0.38767,12.04784 1.13316,23.83983 2.21875,35.0957 10.30041,-4.68744 20.89554,-9.93808 31.53321,-15.62695 z"
         id="path1004-5"
         sodipodi:nodetypes="ccccc" /><path
         style="display:inline;fill:#853039;fill-opacity:1;fill-rule:evenodd;stroke-width:188.976;paint-order:stroke fill markers"
         d="m -410.2081,198.91602 c 1.08559,-11.25587 1.83108,-23.04786 2.21875,-35.0957 -33.75302,-19.49805 -33.75283,-19.49805 -33.75283,-19.49805 0,0 0,0 -10e-4,38.9668 10.63847,5.689 21.23426,10.93965 31.53515,15.62695 z"
         id="path1002-1"
         sodipodi:nodetypes="ccccc" /></g></g></svg>
